<?xml version="1.0" encoding="utf-8"?>
<!-- Generator: Adobe Illustrator 19.0.0, SVG Export Plug-In . SVG Version: 6.00 Build 0)  -->
<svg version="1.1" id="Layer_1" xmlns="http://www.w3.org/2000/svg" xmlns:xlink="http://www.w3.org/1999/xlink" x="0px" y="0px"
	 viewBox="0 -0.03 70.9 70.9" style="enable-background:new 0 -0.03 70.9 70.9;" xml:space="preserve">
<style type="text/css">
	.st0{fill:#FBB516;}
	.st1{fill:#FED402;}
	.st2{fill:#FFF098;}
</style>
<g>
	<path class="st0" d="M7.1,35.37c0,38.4,56.7,38.3,56.7,0S7.1-3.03,7.1,35.37z"/>
	<path class="st1" d="M11.2,35.37c0,38.1,52.6,37.9,52.6,0S11.2-2.73,11.2,35.37z"/>
	<path class="st2" d="M17.2,35.67c0,29.9,40.7,29.7,40.7,0S17.2,5.77,17.2,35.67z"/>
	<polygon class="st1" points="38.2,18.76 40.4,18.76 40.4,23.25 38.23,22.53 38.2,22.49 	"/>
	<polygon class="st1" points="38.2,18.76 38.2,19.26 39.9,19.26 39.9,22.55 38.38,22.05 38.23,22.53 38.63,22.23 38.61,22.2 
		38.2,22.49 38.7,22.49 38.7,18.76 38.2,18.76 38.2,19.26 38.2,18.76 37.7,18.76 37.7,22.65 37.82,22.82 37.92,22.95 40.9,23.94 
		40.9,18.26 37.7,18.26 37.7,18.76 	"/>
	<path class="st1" d="M46.67,40.77c-0.79,1.82-1.65,3.73-3.2,5.02c-1.47,1.23-3.38,1.86-5.29,1.9c-2.14,0.05-4.35-0.64-5.74-2.34
		c-2.95-3.63-0.88-8.15,1.78-11.25c3.13-3.65,7.28-6,11.62-7.93c0.69-0.31,1.08-0.66,0-1.06c-2.63-0.98-11.39-4.83-13.73-4.82
		c-1.92,0.01-3.99,1.28-4.94,3c-0.28,0.51-0.44,1.07-0.52,1.64c-0.04,0.28-0.06,0.57-0.07,0.86c-0.01,0.65,0.05,1.18,0.39,1.76
		c0.39,0.67,1.24,1.31,1.94,1.61c0.1-1.32-0.02-1.84,0.32-3.12c0.3-1.15,0.89-2.05,2.06-2.47c2.3-0.82,12.01,2.06,12.01,2.06
		c-0.25,0.11-0.52,0.21-0.77,0.32c-0.28,0.11-0.55,0.23-0.82,0.35c-0.58,0.25-1.16,0.52-1.72,0.8c-1.19,0.58-2.35,1.22-3.47,1.91
		c-3.08,1.9-5.05,3.97-6.66,6.65c-0.52,0.87-1.02,2.41-1.29,3.39c-1.1,4.04,0.55,8.32,4.47,10.08c3.13,1.4,7.28,1.29,10.14-0.7
		c1.24-0.86,2.37-2.01,3.01-3.37c0.52-1.1,1.09-2.92,0.86-4.29C47.01,40.62,46.74,40.59,46.67,40.77z"/>
	<ellipse class="st1" cx="39.3" cy="38.75" rx="2.1" ry="2"/>
	<path class="st1" d="M39.3,36.75v0.5c0.45,0,0.85,0.17,1.14,0.45c0.29,0.28,0.46,0.64,0.46,1.05c0,0.41-0.17,0.78-0.46,1.05
		c-0.29,0.27-0.69,0.45-1.14,0.45c-0.45,0-0.85-0.17-1.14-0.45c-0.29-0.28-0.46-0.64-0.46-1.05c0-0.41,0.17-0.78,0.46-1.05
		c0.29-0.27,0.69-0.45,1.14-0.45V36.75v-0.5c-1.42,0-2.6,1.1-2.6,2.5c0,1.4,1.18,2.5,2.6,2.5c1.42,0,2.6-1.1,2.6-2.5
		c0-1.4-1.18-2.5-2.6-2.5V36.75z"/>
	<rect x="38.2" y="48.22" class="st1" width="2.2" height="4.7"/>
	<polygon class="st1" points="38.2,48.22 38.2,48.72 39.9,48.72 39.9,52.42 38.7,52.42 38.7,48.22 38.2,48.22 38.2,48.72 
		38.2,48.22 37.7,48.22 37.7,53.42 40.9,53.42 40.9,47.72 37.7,47.72 37.7,48.22 	"/>
</g>
</svg>
